<svg id="Layer_1" data-name="Layer 1" xmlns="http://www.w3.org/2000/svg" viewBox="0 0 1348 1350"><defs><style>.cls-1{fill:#159589;}</style></defs><path class="cls-1" d="M158,1.9c0,2.4-1.9,3.1-8.8,3.1-3.4.1-6.5.7-7.6,1.5A8.94,8.94,0,0,1,137.1,8a8.63,8.63,0,0,0-4.5,1.5,8.92,8.92,0,0,1-4.4,1.5c-2.3,0-3.4.4-10.9,4.4a14.37,14.37,0,0,1-5.2,1.6c-1.2,0-2.1.4-2.1.9s-1,1.3-2.2,1.7a28.77,28.77,0,0,0-6.6,3.5c-2.4,1.6-4.9,2.9-5.5,2.9s-2.8,1.3-4.7,3a17.31,17.31,0,0,1-4.5,3c-1,0-10,6.8-20.8,15.7C56.5,55.3,35.6,78.8,31,86.9c-.8,1.4-2.7,4.2-4.2,6.2s-2.8,4.2-2.8,5a4.33,4.33,0,0,1-1.1,2.6c-1.4,1.4-3.5,5-5,8.5-.6,1.6-1.5,2.8-2,2.8s-.9.9-.9,2.1a14.56,14.56,0,0,1-1.5,5c-.8,1.6-2.2,4.2-3,5.8A14.76,14.76,0,0,0,9,130.2a8.92,8.92,0,0,1-1.5,4.4A8.29,8.29,0,0,0,6,139a8.84,8.84,0,0,1-1.4,4.5,20.73,20.73,0,0,0-1.9,7c-.3,2.7-1,5.1-1.6,5.3C.3,156.1,0,320.4,0,753.1V1350l526.5-.2,526.6-.3v-165l-442.2-.3c-324.9-.1-442.6-.5-443.5-1.3-1.2-1-1.4-97-1.4-592V0h-4C158.7,0,158,.4,158,1.9Z"/><path class="cls-1" d="M297,84v84H738.3c341.9,0,441.6.3,442.5,1.2s1.2,133.6,1.2,591c0,324.4.2,589.8.4,589.8a21.66,21.66,0,0,0,3.2-1.5,18.51,18.51,0,0,1,7-1.5c2.2,0,4.4-.4,5-1s3-1.4,5.4-1.9a75.6,75.6,0,0,0,14.8-4.7,16.44,16.44,0,0,1,5.1-1.4,4.8,4.8,0,0,0,3.1-1.5,4.35,4.35,0,0,1,2.8-1.5c1.9,0,10-3.8,10.8-5.1a3.23,3.23,0,0,1,2.5-.9c1,0,1.9-.4,1.9-.9s.9-1.2,1.9-1.6c2.6-.8,20.9-13,24.2-16.1a11.08,11.08,0,0,1,3.3-2.4c2.6,0,23.9-21.5,32.3-32.6,1.2-1.6,3.1-3.9,4.2-5.1a7.42,7.42,0,0,0,2.1-3.1c0-.8.8-2,4.9-6.8,3.3-3.9,18.5-34.9,19.4-39.4a76.13,76.13,0,0,1,4.2-12.5,33.86,33.86,0,0,0,2-7.5,18.94,18.94,0,0,1,1.4-5.5c.5-.5,1.1-4.1,1.3-7.9.2-4.2.9-7.1,1.6-7.4.9-.3,1.2-134.9,1.2-590.3V0H297Z"/><path class="cls-1" d="M297.2,381l.3,82H588.9l1.5,2.2c1.4,2,1.6,9.6,1.6,64,0,54.9-.2,61.8-1.6,63.2S574.7,594,443.2,594H297.5l-.3,82.5L297,759H443.4c116.1,0,146.6.3,147.3,1.2.4.7.9,28.9,1.1,62.7.2,54.2.1,61.6-1.3,63.7l-1.6,2.4H297.5l-.3,82-.2,82,378.1-.2,378.1-.3v-81c-.1-44.6-.1-81.3-.1-81.8s-65.7-.7-145.9-.7c-130.3,0-146-.2-148-1.6l-2.2-1.5V823.6c0-51.1.2-62.6,1.3-63.5s41.7-1.2,148.1-1.3l146.7-.3V678c.1-44.3.1-81.3,0-82.3-.1-1.6-7.8-1.7-145.3-1.8-79.9-.1-146.4-.4-147.8-.8l-2.5-.7-.3-62.9-.2-63,2.1-1.8c2-1.6,10.5-1.7,148-1.7,80.2,0,145.9-.3,145.9-.8s.1-37.2.1-81.7l.1-81-378.1-.3L297,299Z"/></svg>